<svg width="19" height="19" viewBox="0 0 19 19" fill="none" xmlns="http://www.w3.org/2000/svg">
<g clip-path="url(#clip0_70_456)">
<path d="M7.25365 6.15106V13.0963M5.03365 6.92189V13.0963M2.81365 8.84898V13.0963M0.585938 9.62752V12.7031M9.68948 13.104H15.7328C16.0558 13.1042 16.3748 13.0327 16.6669 12.8947C16.9589 12.7567 17.2167 12.5556 17.4216 12.3059C17.6265 12.0562 17.7734 11.7642 17.8518 11.4509C17.9303 11.1375 17.9381 10.8107 17.875 10.4939C17.8115 10.1771 17.6784 9.8784 17.4854 9.6193C17.2924 9.36019 17.0443 9.1472 16.7589 8.9957C16.4735 8.8442 16.1581 8.75798 15.8353 8.74327C15.5126 8.72856 15.1906 8.78573 14.8926 8.91064C14.8058 7.94972 14.3617 7.0563 13.6481 6.40692C12.9345 5.75755 12.0033 5.39944 11.0384 5.40335C10.5612 5.40357 10.0881 5.49244 9.64323 5.66544C9.48135 5.7271 9.4351 5.79648 9.4351 5.91981V12.8573C9.43711 12.9234 9.46479 12.9862 9.51228 13.0322C9.55977 13.0783 9.62333 13.104 9.68948 13.104Z" stroke="white" stroke-linecap="round" stroke-linejoin="round"/>
</g>
<defs>
<clipPath id="clip0_70_456">
<rect width="18.5" height="18.5" fill="white"/>
</clipPath>
</defs>
</svg>
