<svg width="19" height="19" viewBox="0 0 19 19" fill="none" xmlns="http://www.w3.org/2000/svg">
<path d="M9.25 1.73438C5.106 1.73438 1.73438 5.106 1.73438 9.25C1.73438 13.394 5.106 16.7656 9.25 16.7656C13.394 16.7656 16.7656 13.394 16.7656 9.25C16.7656 5.106 13.394 1.73438 9.25 1.73438ZM9.25 2.89062C12.7563 2.89062 15.6094 5.74367 15.6094 9.25C15.6094 12.7563 12.7563 15.6094 9.25 15.6094C5.74367 15.6094 2.89062 12.7563 2.89062 9.25C2.89062 5.74367 5.74367 2.89062 9.25 2.89062ZM7.73705 6.9375L5.42455 11.5625H10.763L13.0755 6.9375H7.73705ZM8.45045 8.09375H11.2058L10.0495 10.4062H7.2942L8.45045 8.09375Z" fill="white"/>
</svg>
