<svg width="19" height="19" viewBox="0 0 19 19" fill="none" xmlns="http://www.w3.org/2000/svg">
<path d="M9.23856 11.8772L11.7376 14.7185C12.6626 15.7707 13.1259 16.2972 13.6107 16.1684C14.0948 16.0405 14.2613 15.3483 14.5935 13.9631L16.4358 6.27943C16.9484 4.14576 17.2044 3.0797 16.6355 2.55322C16.0666 2.02674 15.0807 2.41832 13.1089 3.20072L3.96221 6.83366C2.38508 7.46034 1.59652 7.7733 1.54642 8.31134C1.54052 8.36617 1.54052 8.42147 1.54642 8.4763C1.59498 9.01511 2.382 9.33039 3.95758 9.9617C4.6706 10.2477 5.0275 10.3911 5.28342 10.6647C5.3122 10.6955 5.33994 10.7274 5.36667 10.7603C5.60254 11.0532 5.70275 11.4386 5.90394 12.2064L6.28088 13.6455C6.4759 14.3932 6.57379 14.7678 6.83048 14.8187C7.08717 14.8696 7.30994 14.5597 7.75625 13.9392L9.23856 11.8772ZM9.23856 11.8772L8.99421 11.6228C8.71517 11.3315 8.57565 11.1866 8.57565 11.0062C8.57565 10.8258 8.7144 10.6801 8.99421 10.3895L11.7484 7.51893" stroke="white" stroke-linecap="round" stroke-linejoin="round"/>
</svg>
