<svg width="20" height="20" viewBox="0 0 20 20" fill="none" xmlns="http://www.w3.org/2000/svg">
<path d="M11.265 18.8751C13.0058 18.5861 14.6276 17.8051 15.9391 16.6244C17.2505 15.4437 18.1969 13.9125 18.6665 12.2115C19.1361 10.5105 19.1093 8.71069 18.5893 7.02439C18.0693 5.3381 17.0779 3.83573 15.7319 2.69455C14.3859 1.55338 12.7416 0.821018 10.993 0.583897C9.24432 0.346775 7.46435 0.614785 5.86307 1.3563C4.26179 2.09782 2.90602 3.2819 1.95575 4.76882C1.00548 6.25574 0.500364 7.98346 0.5 9.74809C0.499706 11.9375 1.27604 14.0561 2.69091 15.7269C4.10578 17.3978 6.06845 18.5126 8.228 18.8731C9.23338 19.0402 10.2594 19.0408 11.265 18.8751ZM8.228 18.8731L8.227 13.8681H6.33C6.17087 13.8681 6.01826 13.8049 5.90574 13.6924C5.79321 13.5798 5.73 13.4272 5.73 13.2681V11.4301C5.73 11.271 5.79321 11.1184 5.90574 11.0058C6.01826 10.8933 6.17087 10.8301 6.33 10.8301H8.227V7.69809C8.227 6.90245 8.54307 6.13938 9.10568 5.57677C9.66829 5.01417 10.4313 4.6981 11.227 4.6981H13.037C13.3022 4.6981 13.5566 4.80345 13.7441 4.99099C13.9316 5.17853 14.037 5.43288 14.037 5.6981V6.7381C14.037 7.00331 13.9316 7.25767 13.7441 7.4452C13.5566 7.63274 13.3022 7.73809 13.037 7.73809H12.265C11.9998 7.73809 11.7454 7.84345 11.5579 8.03099C11.3704 8.21852 11.265 8.47288 11.265 8.73809V10.8301H13.562C13.6491 10.8301 13.7351 10.849 13.8142 10.8856C13.8932 10.9222 13.9633 10.9756 14.0196 11.042C14.076 11.1084 14.1172 11.1863 14.1404 11.2702C14.1636 11.3542 14.1682 11.4422 14.154 11.5281L13.904 13.0321C13.8652 13.2656 13.7448 13.4778 13.5642 13.6308C13.3837 13.7839 13.1547 13.868 12.918 13.8681H11.265V18.8751" stroke="white" stroke-linecap="round"/>
</svg>
