<svg width="19" height="19" viewBox="0 0 19 19" fill="none" xmlns="http://www.w3.org/2000/svg">
<path d="M1.88867 8.80199C1.88867 6.47638 2.11992 5.31319 2.84219 4.59092C3.56446 3.86865 4.72765 3.86865 7.05325 3.86865H11.447C13.7726 3.86865 14.935 3.86865 15.6581 4.59092C16.3811 5.31319 16.6116 6.47638 16.6116 8.80199V9.69769C16.6116 12.0233 16.3803 13.1865 15.6581 13.9088C14.9358 14.631 13.7726 14.631 11.447 14.631H7.05325C4.72765 14.631 3.56446 14.631 2.84219 13.9088C2.11992 13.1865 1.88867 12.0233 1.88867 9.69769V8.80199Z" stroke="white" stroke-linecap="round" stroke-linejoin="round"/>
<path d="M11.3208 8.85756L8.03087 6.80175C7.96085 6.75798 7.88039 6.73376 7.79784 6.7316C7.7153 6.72944 7.63368 6.74942 7.56147 6.78946C7.48926 6.8295 7.42908 6.88814 7.38719 6.9593C7.34529 7.03046 7.32321 7.11153 7.32324 7.1941V11.3065C7.32335 11.389 7.34553 11.47 7.38748 11.541C7.42943 11.6121 7.48962 11.6706 7.56181 11.7106C7.634 11.7505 7.71556 11.7704 7.79804 11.7682C7.88051 11.766 7.9609 11.7418 8.03087 11.6981L11.3208 9.64227C11.3874 9.60071 11.4423 9.54289 11.4804 9.47425C11.5184 9.40561 11.5384 9.32841 11.5384 9.24991C11.5384 9.17142 11.5184 9.09422 11.4804 9.02558C11.4423 8.95694 11.3874 8.89912 11.3208 8.85756Z" stroke="white" stroke-linejoin="round"/>
</svg>
