<svg width="19" height="19" viewBox="0 0 19 19" fill="none" xmlns="http://www.w3.org/2000/svg">
<path d="M11.5628 2.69775H6.93783C4.59637 2.69775 2.69824 4.59588 2.69824 6.93734V11.5623C2.69824 13.9038 4.59637 15.8019 6.93783 15.8019H11.5628C13.9043 15.8019 15.8024 13.9038 15.8024 11.5623V6.93734C15.8024 4.59588 13.9043 2.69775 11.5628 2.69775Z" stroke="white" stroke-linecap="round" stroke-linejoin="round"/>
<path d="M9.25033 12.0295C10.7855 12.0295 12.03 10.785 12.03 9.24984C12.03 7.7147 10.7855 6.47021 9.25033 6.47021C7.71518 6.47021 6.4707 7.7147 6.4707 9.24984C6.4707 10.785 7.71518 12.0295 9.25033 12.0295Z" stroke="white" stroke-linecap="round" stroke-linejoin="round"/>
<path d="M13.0225 6.27151C13.461 6.27151 13.8164 5.91604 13.8164 5.47755C13.8164 5.03906 13.461 4.68359 13.0225 4.68359C12.584 4.68359 12.2285 5.03906 12.2285 5.47755C12.2285 5.91604 12.584 6.27151 13.0225 6.27151Z" fill="white"/>
</svg>
